<?xml version="1.0" encoding="UTF-8"?>
<mxfile host="app.diagrams.net" modified="2025-07-26T10:00:00.000Z" agent="5.0" etag="v1.0" version="24.7.6">
  <diagram name="Lambda Services Detail" id="lambda-detail">
    <mxGraphModel dx="1422" dy="794" grid="1" gridSize="10" guides="1" tooltips="1" connect="1" arrows="1" fold="1" page="1" pageScale="1" pageWidth="1654" pageHeight="1169" math="0" shadow="0">
      <root>
        <mxCell id="0"/>
        <mxCell id="1" parent="0"/>
        
        <mxCell id="2" value="Vehicle Tracking - Lambda Services Architecture" style="text;html=1;strokeColor=none;fillColor=none;align=center;verticalAlign=middle;whiteSpace=wrap;rounded=0;fontSize=18;fontStyle=1;" vertex="1" parent="1">
          <mxGeometry x="500" y="20" width="500" height="30" as="geometry"/>
        </mxCell>
        
        <mxCell id="3" value="Internet" style="outlineConnect=0;dashed=0;verticalLabelPosition=bottom;verticalAlign=top;align=center;html=1;shape=mxgraph.aws4.internet_alt2;fillColor=#232F3E;gradientColor=none;" vertex="1" parent="1">
          <mxGeometry x="80" y="80" width="60" height="60" as="geometry"/>
        </mxCell>
        
        <mxCell id="4" value="CloudFront" style="outlineConnect=0;dashed=0;verticalLabelPosition=bottom;verticalAlign=top;align=center;html=1;shape=mxgraph.aws4.cloudfront;fillColor=#F58534;gradientColor=none;" vertex="1" parent="1">
          <mxGeometry x="200" y="80" width="60" height="60" as="geometry"/>
        </mxCell>
        
        <mxCell id="5" value="API Gateway" style="outlineConnect=0;dashed=0;verticalLabelPosition=bottom;verticalAlign=top;align=center;html=1;shape=mxgraph.aws4.api_gateway;fillColor=#F58534;gradientColor=none;" vertex="1" parent="1">
          <mxGeometry x="320" y="80" width="60" height="60" as="geometry"/>
        </mxCell>
        
        <mxCell id="6" value="Core Lambda Functions" style="rounded=1;whiteSpace=wrap;html=1;fillColor=#E6F2F8;strokeColor=#147EBA;verticalAlign=top;fontSize=12;fontStyle=1;" vertex="1" parent="1">
          <mxGeometry x="450" y="120" width="500" height="180" as="geometry"/>
        </mxCell>
        
        <mxCell id="7" value="Vehicle Management" style="outlineConnect=0;dashed=0;verticalLabelPosition=bottom;verticalAlign=top;align=center;html=1;shape=mxgraph.aws4.lambda_function;fillColor=#F58534;gradientColor=none;" vertex="1" parent="1">
          <mxGeometry x="470" y="150" width="50" height="50" as="geometry"/>
        </mxCell>
        
        <mxCell id="8" value="Telemetry API" style="outlineConnect=0;dashed=0;verticalLabelPosition=bottom;verticalAlign=top;align=center;html=1;shape=mxgraph.aws4.lambda_function;fillColor=#F58534;gradientColor=none;" vertex="1" parent="1">
          <mxGeometry x="540" y="150" width="50" height="50" as="geometry"/>
        </mxCell>
        
        <mxCell id="9" value="Fleet Dashboard" style="outlineConnect=0;dashed=0;verticalLabelPosition=bottom;verticalAlign=top;align=center;html=1;shape=mxgraph.aws4.lambda_function;fillColor=#F58534;gradientColor=none;" vertex="1" parent="1">
          <mxGeometry x="610" y="150" width="50" height="50" as="geometry"/>
        </mxCell>
        
        <mxCell id="10" value="Notifications API" style="outlineConnect=0;dashed=0;verticalLabelPosition=bottom;verticalAlign=top;align=center;html=1;shape=mxgraph.aws4.lambda_function;fillColor=#F58534;gradientColor=none;" vertex="1" parent="1">
          <mxGeometry x="680" y="150" width="50" height="50" as="geometry"/>
        </mxCell>
        
        <mxCell id="11" value="Reports API" style="outlineConnect=0;dashed=0;verticalLabelPosition=bottom;verticalAlign=top;align=center;html=1;shape=mxgraph.aws4.lambda_function;fillColor=#F58534;gradientColor=none;" vertex="1" parent="1">
          <mxGeometry x="750" y="150" width="50" height="50" as="geometry"/>
        </mxCell>
        
        <mxCell id="12" value="Video Processor" style="outlineConnect=0;dashed=0;verticalLabelPosition=bottom;verticalAlign=top;align=center;html=1;shape=mxgraph.aws4.lambda_function;fillColor=#F58534;gradientColor=none;" vertex="1" parent="1">
          <mxGeometry x="820" y="150" width="50" height="50" as="geometry"/>
        </mxCell>
        
        <mxCell id="13" value="Panic Processor" style="outlineConnect=0;dashed=0;verticalLabelPosition=bottom;verticalAlign=top;align=center;html=1;shape=mxgraph.aws4.lambda_function;fillColor=#F58534;gradientColor=none;" vertex="1" parent="1">
          <mxGeometry x="470" y="230" width="50" height="50" as="geometry"/>
        </mxCell>
        
        <mxCell id="14" value="Telemetry Processor" style="outlineConnect=0;dashed=0;verticalLabelPosition=bottom;verticalAlign=top;align=center;html=1;shape=mxgraph.aws4.lambda_function;fillColor=#F58534;gradientColor=none;" vertex="1" parent="1">
          <mxGeometry x="540" y="230" width="50" height="50" as="geometry"/>
        </mxCell>
        
        <mxCell id="15" value="Sales Lambda Functions" style="rounded=1;whiteSpace=wrap;html=1;fillColor=#F2F6E8;strokeColor=#7AA116;verticalAlign=top;fontSize=12;fontStyle=1;" vertex="1" parent="1">
          <mxGeometry x="450" y="320" width="500" height="100" as="geometry"/>
        </mxCell>
        
        <mxCell id="16" value="Sales Clients API" style="outlineConnect=0;dashed=0;verticalLabelPosition=bottom;verticalAlign=top;align=center;html=1;shape=mxgraph.aws4.lambda_function;fillColor=#7AA116;gradientColor=none;" vertex="1" parent="1">
          <mxGeometry x="470" y="350" width="50" height="50" as="geometry"/>
        </mxCell>
        
        <mxCell id="17" value="Sales Inventory API" style="outlineConnect=0;dashed=0;verticalLabelPosition=bottom;verticalAlign=top;align=center;html=1;shape=mxgraph.aws4.lambda_function;fillColor=#7AA116;gradientColor=none;" vertex="1" parent="1">
          <mxGeometry x="540" y="350" width="50" height="50" as="geometry"/>
        </mxCell>
        
        <mxCell id="18" value="Sales Contracts API" style="outlineConnect=0;dashed=0;verticalLabelPosition=bottom;verticalAlign=top;align=center;html=1;shape=mxgraph.aws4.lambda_function;fillColor=#7AA116;gradientColor=none;" vertex="1" parent="1">
          <mxGeometry x="610" y="350" width="50" height="50" as="geometry"/>
        </mxCell>
        
        <mxCell id="19" value="Sales Dashboard API" style="outlineConnect=0;dashed=0;verticalLabelPosition=bottom;verticalAlign=top;align=center;html=1;shape=mxgraph.aws4.lambda_function;fillColor=#7AA116;gradientColor=none;" vertex="1" parent="1">
          <mxGeometry x="680" y="350" width="50" height="50" as="geometry"/>
        </mxCell>
        
        <mxCell id="20" value="Data Services" style="rounded=1;whiteSpace=wrap;html=1;fillColor=#F8E6FF;strokeColor=#C925D1;verticalAlign=top;fontSize=12;fontStyle=1;" vertex="1" parent="1">
          <mxGeometry x="450" y="450" width="500" height="100" as="geometry"/>
        </mxCell>
        
        <mxCell id="21" value="DynamoDB" style="outlineConnect=0;dashed=0;verticalLabelPosition=bottom;verticalAlign=top;align=center;html=1;shape=mxgraph.aws4.dynamodb;fillColor=#C925D1;gradientColor=none;" vertex="1" parent="1">
          <mxGeometry x="470" y="480" width="60" height="60" as="geometry"/>
        </mxCell>
        
        <mxCell id="22" value="ElastiCache" style="outlineConnect=0;dashed=0;verticalLabelPosition=bottom;verticalAlign=top;align=center;html=1;shape=mxgraph.aws4.elasticache_for_redis;fillColor=#C925D1;gradientColor=none;" vertex="1" parent="1">
          <mxGeometry x="550" y="480" width="60" height="60" as="geometry"/>
        </mxCell>
        
        <mxCell id="23" value="S3" style="outlineConnect=0;dashed=0;verticalLabelPosition=bottom;verticalAlign=top;align=center;html=1;shape=mxgraph.aws4.s3;fillColor=#7AA116;gradientColor=none;" vertex="1" parent="1">
          <mxGeometry x="630" y="480" width="60" height="60" as="geometry"/>
        </mxCell>
        
        <mxCell id="24" value="SNS" style="outlineConnect=0;dashed=0;verticalLabelPosition=bottom;verticalAlign=top;align=center;html=1;shape=mxgraph.aws4.sns;fillColor=#F58534;gradientColor=none;" vertex="1" parent="1">
          <mxGeometry x="710" y="480" width="60" height="60" as="geometry"/>
        </mxCell>
        
        <mxCell id="25" value="External Services" style="rounded=1;whiteSpace=wrap;html=1;fillColor=#FFF3E0;strokeColor=#FF6F00;verticalAlign=top;fontSize=12;fontStyle=1;" vertex="1" parent="1">
          <mxGeometry x="1000" y="120" width="400" height="300" as="geometry"/>
        </mxCell>
        
        <mxCell id="26" value="Cognito" style="outlineConnect=0;dashed=0;verticalLabelPosition=bottom;verticalAlign=top;align=center;html=1;shape=mxgraph.aws4.cognito;fillColor=#F58534;gradientColor=none;" vertex="1" parent="1">
          <mxGeometry x="1020" y="150" width="60" height="60" as="geometry"/>
        </mxCell>
        
        <mxCell id="27" value="IoT Core" style="outlineConnect=0;dashed=0;verticalLabelPosition=bottom;verticalAlign=top;align=center;html=1;shape=mxgraph.aws4.iot_core;fillColor=#7AA116;gradientColor=none;" vertex="1" parent="1">
          <mxGeometry x="1100" y="150" width="60" height="60" as="geometry"/>
        </mxCell>
        
        <mxCell id="28" value="Kinesis" style="outlineConnect=0;dashed=0;verticalLabelPosition=bottom;verticalAlign=top;align=center;html=1;shape=mxgraph.aws4.kinesis_data_streams;fillColor=#8C4FFF;gradientColor=none;" vertex="1" parent="1">
          <mxGeometry x="1180" y="150" width="60" height="60" as="geometry"/>
        </mxCell>
        
        <mxCell id="29" value="CloudWatch" style="outlineConnect=0;dashed=0;verticalLabelPosition=bottom;verticalAlign=top;align=center;html=1;shape=mxgraph.aws4.cloudwatch_2;fillColor=#F58534;gradientColor=none;" vertex="1" parent="1">
          <mxGeometry x="1020" y="240" width="60" height="60" as="geometry"/>
        </mxCell>
        
        <mxCell id="30" value="Rekognition" style="outlineConnect=0;dashed=0;verticalLabelPosition=bottom;verticalAlign=top;align=center;html=1;shape=mxgraph.aws4.rekognition;fillColor=#01A88D;gradientColor=none;" vertex="1" parent="1">
          <mxGeometry x="1100" y="240" width="60" height="60" as="geometry"/>
        </mxCell>
        
        <mxCell id="31" value="Lambda Functions Details" style="rounded=1;whiteSpace=wrap;html=1;fillColor=#FFF8E1;strokeColor=#FFC107;verticalAlign=top;fontSize=14;fontStyle=1;" vertex="1" parent="1">
          <mxGeometry x="50" y="180" width="350" height="400" as="geometry"/>
        </mxCell>
        
        <mxCell id="32" value="Core Functions (8)" style="text;html=1;strokeColor=none;fillColor=none;align=left;verticalAlign=middle;whiteSpace=wrap;rounded=0;fontSize=12;fontStyle=1;fontColor=#147EBA;" vertex="1" parent="1">
          <mxGeometry x="70" y="210" width="200" height="20" as="geometry"/>
        </mxCell>
        
        <mxCell id="33" value="• Vehicle Management - CRUD operations&#xa;• Telemetry API - Real-time data processing&#xa;• Fleet Dashboard - KPIs and metrics&#xa;• Notifications API - Multi-channel alerts&#xa;• Reports API - Automated reports&#xa;• Video Processor - Video stream handling&#xa;• Panic Processor - Emergency response&#xa;• Telemetry Processor - Stream processing" style="text;html=1;strokeColor=none;fillColor=none;align=left;verticalAlign=top;whiteSpace=wrap;rounded=0;fontSize=10;" vertex="1" parent="1">
          <mxGeometry x="70" y="235" width="320" height="120" as="geometry"/>
        </mxCell>
        
        <mxCell id="34" value="Sales Functions (4)" style="text;html=1;strokeColor=none;fillColor=none;align=left;verticalAlign=middle;whiteSpace=wrap;rounded=0;fontSize=12;fontStyle=1;fontColor=#7AA116;" vertex="1" parent="1">
          <mxGeometry x="70" y="370" width="200" height="20" as="geometry"/>
        </mxCell>
        
        <mxCell id="35" value="• Sales Clients API - CRM functionality&#xa;• Sales Inventory API - Vehicle inventory&#xa;• Sales Contracts API - Contract lifecycle&#xa;• Sales Dashboard API - Revenue analytics" style="text;html=1;strokeColor=none;fillColor=none;align=left;verticalAlign=top;whiteSpace=wrap;rounded=0;fontSize=10;" vertex="1" parent="1">
          <mxGeometry x="70" y="395" width="320" height="60" as="geometry"/>
        </mxCell>
        
        <mxCell id="36" value="Performance Metrics" style="text;html=1;strokeColor=none;fillColor=none;align=left;verticalAlign=middle;whiteSpace=wrap;rounded=0;fontSize=12;fontStyle=1;fontColor=#F58534;" vertex="1" parent="1">
          <mxGeometry x="70" y="470" width="200" height="20" as="geometry"/>
        </mxCell>
        
        <mxCell id="37" value="• Memory: 128-256 MB per function&#xa;• Runtime: Python 3.9&#xa;• Average duration: &lt;200ms&#xa;• Error rate: &lt;0.1%&#xa;• Cost: ~$10/month total" style="text;html=1;strokeColor=none;fillColor=none;align=left;verticalAlign=top;whiteSpace=wrap;rounded=0;fontSize=10;" vertex="1" parent="1">
          <mxGeometry x="70" y="495" width="320" height="70" as="geometry"/>
        </mxCell>
        
        <!-- Arrows -->
        <mxCell id="38" style="edgeStyle=orthogonalEdgeStyle;rounded=0;orthogonalLoop=1;jettySize=auto;html=1;strokeWidth=2;strokeColor=#232F3E;" edge="1" parent="1" source="3" target="4">
          <mxGeometry relative="1" as="geometry"/>
        </mxCell>
        
        <mxCell id="39" style="edgeStyle=orthogonalEdgeStyle;rounded=0;orthogonalLoop=1;jettySize=auto;html=1;strokeWidth=2;strokeColor=#F58534;" edge="1" parent="1" source="4" target="5">
          <mxGeometry relative="1" as="geometry"/>
        </mxCell>
        
        <mxCell id="40" style="edgeStyle=orthogonalEdgeStyle;rounded=0;orthogonalLoop=1;jettySize=auto;html=1;strokeWidth=2;strokeColor=#F58534;" edge="1" parent="1" source="5" target="7">
          <mxGeometry relative="1" as="geometry"/>
        </mxCell>
        
        <mxCell id="41" style="edgeStyle=orthogonalEdgeStyle;rounded=0;orthogonalLoop=1;jettySize=auto;html=1;strokeWidth=2;strokeColor=#F58534;" edge="1" parent="1" source="5" target="16">
          <mxGeometry relative="1" as="geometry"/>
        </mxCell>
        
        <mxCell id="42" style="edgeStyle=orthogonalEdgeStyle;rounded=0;orthogonalLoop=1;jettySize=auto;html=1;strokeWidth=2;strokeColor=#C925D1;" edge="1" parent="1" source="7" target="21">
          <mxGeometry relative="1" as="geometry"/>
        </mxCell>
        
        <mxCell id="43" style="edgeStyle=orthogonalEdgeStyle;rounded=0;orthogonalLoop=1;jettySize=auto;html=1;strokeWidth=2;strokeColor=#C925D1;" edge="1" parent="1" source="8" target="22">
          <mxGeometry relative="1" as="geometry"/>
        </mxCell>
        
        <mxCell id="44" style="edgeStyle=orthogonalEdgeStyle;rounded=0;orthogonalLoop=1;jettySize=auto;html=1;strokeWidth=2;strokeColor=#7AA116;" edge="1" parent="1" source="12" target="23">
          <mxGeometry relative="1" as="geometry"/>
        </mxCell>
        
        <mxCell id="45" style="edgeStyle=orthogonalEdgeStyle;rounded=0;orthogonalLoop=1;jettySize=auto;html=1;strokeWidth=2;strokeColor=#F58534;" edge="1" parent="1" source="13" target="24">
          <mxGeometry relative="1" as="geometry"/>
        </mxCell>
        
        <mxCell id="46" style="edgeStyle=orthogonalEdgeStyle;rounded=0;orthogonalLoop=1;jettySize=auto;html=1;strokeWidth=2;strokeColor=#8C4FFF;" edge="1" parent="1" source="28" target="14">
          <mxGeometry relative="1" as="geometry"/>
        </mxCell>
        
        <mxCell id="47" style="edgeStyle=orthogonalEdgeStyle;rounded=0;orthogonalLoop=1;jettySize=auto;html=1;strokeWidth=2;strokeColor=#01A88D;" edge="1" parent="1" source="12" target="30">
          <mxGeometry relative="1" as="geometry"/>
        </mxCell>
        
      </root>
    </mxGraphModel>
  </diagram>
</mxfile>
